<mxfile host="app.diagrams.net" agent="Mozilla/5.0 (Windows NT 10.0; Win64; x64) AppleWebKit/537.36 (KHTML, like Gecko) Chrome/129.0.0.0 Safari/537.36" version="24.8.2">
  <diagram name="1 oldal" id="Kkb7_M59mKaOvKIN-XOw">
    <mxGraphModel dx="1195" dy="1791" grid="1" gridSize="10" guides="1" tooltips="1" connect="1" arrows="1" fold="1" page="1" pageScale="1" pageWidth="827" pageHeight="1169" math="0" shadow="0">
      <root>
        <mxCell id="0" />
        <mxCell id="1" parent="0" />
        <mxCell id="3DmnVJYchchd9WxNzLBE-14" value="" style="shape=table;startSize=0;container=1;collapsible=0;childLayout=tableLayout;" vertex="1" parent="1">
          <mxGeometry x="160" y="-1120" width="560" height="1023" as="geometry" />
        </mxCell>
        <mxCell id="3DmnVJYchchd9WxNzLBE-15" value="" style="shape=tableRow;horizontal=0;startSize=0;swimlaneHead=0;swimlaneBody=0;strokeColor=inherit;top=0;left=0;bottom=0;right=0;collapsible=0;dropTarget=0;fillColor=none;points=[[0,0.5],[1,0.5]];portConstraint=eastwest;" vertex="1" parent="3DmnVJYchchd9WxNzLBE-14">
          <mxGeometry width="560" height="33" as="geometry" />
        </mxCell>
        <mxCell id="3DmnVJYchchd9WxNzLBE-16" value="Akció" style="shape=partialRectangle;html=1;whiteSpace=wrap;connectable=0;strokeColor=inherit;overflow=hidden;fillColor=none;top=0;left=0;bottom=0;right=0;pointerEvents=1;" vertex="1" parent="3DmnVJYchchd9WxNzLBE-15">
          <mxGeometry width="320" height="33" as="geometry">
            <mxRectangle width="320" height="33" as="alternateBounds" />
          </mxGeometry>
        </mxCell>
        <mxCell id="3DmnVJYchchd9WxNzLBE-17" value="User" style="shape=partialRectangle;html=1;whiteSpace=wrap;connectable=0;strokeColor=inherit;overflow=hidden;fillColor=none;top=0;left=0;bottom=0;right=0;pointerEvents=1;" vertex="1" parent="3DmnVJYchchd9WxNzLBE-15">
          <mxGeometry x="320" width="80" height="33" as="geometry">
            <mxRectangle width="80" height="33" as="alternateBounds" />
          </mxGeometry>
        </mxCell>
        <mxCell id="3DmnVJYchchd9WxNzLBE-18" value="Jury" style="shape=partialRectangle;html=1;whiteSpace=wrap;connectable=0;strokeColor=inherit;overflow=hidden;fillColor=none;top=0;left=0;bottom=0;right=0;pointerEvents=1;" vertex="1" parent="3DmnVJYchchd9WxNzLBE-15">
          <mxGeometry x="400" width="80" height="33" as="geometry">
            <mxRectangle width="80" height="33" as="alternateBounds" />
          </mxGeometry>
        </mxCell>
        <mxCell id="3DmnVJYchchd9WxNzLBE-19" value="Admin" style="shape=partialRectangle;html=1;whiteSpace=wrap;connectable=0;strokeColor=inherit;overflow=hidden;fillColor=none;top=0;left=0;bottom=0;right=0;pointerEvents=1;" vertex="1" parent="3DmnVJYchchd9WxNzLBE-15">
          <mxGeometry x="480" width="80" height="33" as="geometry">
            <mxRectangle width="80" height="33" as="alternateBounds" />
          </mxGeometry>
        </mxCell>
        <mxCell id="3DmnVJYchchd9WxNzLBE-20" value="" style="shape=tableRow;horizontal=0;startSize=0;swimlaneHead=0;swimlaneBody=0;strokeColor=inherit;top=0;left=0;bottom=0;right=0;collapsible=0;dropTarget=0;fillColor=none;points=[[0,0.5],[1,0.5]];portConstraint=eastwest;" vertex="1" parent="3DmnVJYchchd9WxNzLBE-14">
          <mxGeometry y="33" width="560" height="33" as="geometry" />
        </mxCell>
        <mxCell id="3DmnVJYchchd9WxNzLBE-21" value="Regisztráció" style="shape=partialRectangle;html=1;whiteSpace=wrap;connectable=0;strokeColor=inherit;overflow=hidden;fillColor=none;top=0;left=0;bottom=0;right=0;pointerEvents=1;align=left;" vertex="1" parent="3DmnVJYchchd9WxNzLBE-20">
          <mxGeometry width="320" height="33" as="geometry">
            <mxRectangle width="320" height="33" as="alternateBounds" />
          </mxGeometry>
        </mxCell>
        <mxCell id="3DmnVJYchchd9WxNzLBE-22" value="✔" style="shape=partialRectangle;html=1;whiteSpace=wrap;connectable=0;strokeColor=inherit;overflow=hidden;fillColor=none;top=0;left=0;bottom=0;right=0;pointerEvents=1;" vertex="1" parent="3DmnVJYchchd9WxNzLBE-20">
          <mxGeometry x="320" width="80" height="33" as="geometry">
            <mxRectangle width="80" height="33" as="alternateBounds" />
          </mxGeometry>
        </mxCell>
        <mxCell id="3DmnVJYchchd9WxNzLBE-23" value="✖" style="shape=partialRectangle;html=1;whiteSpace=wrap;connectable=0;strokeColor=inherit;overflow=hidden;fillColor=none;top=0;left=0;bottom=0;right=0;pointerEvents=1;" vertex="1" parent="3DmnVJYchchd9WxNzLBE-20">
          <mxGeometry x="400" width="80" height="33" as="geometry">
            <mxRectangle width="80" height="33" as="alternateBounds" />
          </mxGeometry>
        </mxCell>
        <mxCell id="3DmnVJYchchd9WxNzLBE-24" value="✖" style="shape=partialRectangle;html=1;whiteSpace=wrap;connectable=0;strokeColor=inherit;overflow=hidden;fillColor=none;top=0;left=0;bottom=0;right=0;pointerEvents=1;" vertex="1" parent="3DmnVJYchchd9WxNzLBE-20">
          <mxGeometry x="480" width="80" height="33" as="geometry">
            <mxRectangle width="80" height="33" as="alternateBounds" />
          </mxGeometry>
        </mxCell>
        <mxCell id="3DmnVJYchchd9WxNzLBE-25" value="" style="shape=tableRow;horizontal=0;startSize=0;swimlaneHead=0;swimlaneBody=0;strokeColor=inherit;top=0;left=0;bottom=0;right=0;collapsible=0;dropTarget=0;fillColor=none;points=[[0,0.5],[1,0.5]];portConstraint=eastwest;" vertex="1" parent="3DmnVJYchchd9WxNzLBE-14">
          <mxGeometry y="66" width="560" height="33" as="geometry" />
        </mxCell>
        <mxCell id="3DmnVJYchchd9WxNzLBE-26" value="Bejelentkezés" style="shape=partialRectangle;html=1;whiteSpace=wrap;connectable=0;strokeColor=inherit;overflow=hidden;fillColor=none;top=0;left=0;bottom=0;right=0;pointerEvents=1;align=left;" vertex="1" parent="3DmnVJYchchd9WxNzLBE-25">
          <mxGeometry width="320" height="33" as="geometry">
            <mxRectangle width="320" height="33" as="alternateBounds" />
          </mxGeometry>
        </mxCell>
        <mxCell id="3DmnVJYchchd9WxNzLBE-27" value="&lt;span style=&quot;color: rgb(0, 0, 0); font-family: Helvetica; font-size: 12px; font-style: normal; font-variant-ligatures: normal; font-variant-caps: normal; font-weight: 400; letter-spacing: normal; orphans: 2; text-align: center; text-indent: 0px; text-transform: none; widows: 2; word-spacing: 0px; -webkit-text-stroke-width: 0px; white-space: normal; background-color: rgb(251, 251, 251); text-decoration-thickness: initial; text-decoration-style: initial; text-decoration-color: initial; display: inline !important; float: none;&quot;&gt;✔&lt;/span&gt;" style="shape=partialRectangle;html=1;whiteSpace=wrap;connectable=0;strokeColor=inherit;overflow=hidden;fillColor=none;top=0;left=0;bottom=0;right=0;pointerEvents=1;" vertex="1" parent="3DmnVJYchchd9WxNzLBE-25">
          <mxGeometry x="320" width="80" height="33" as="geometry">
            <mxRectangle width="80" height="33" as="alternateBounds" />
          </mxGeometry>
        </mxCell>
        <mxCell id="3DmnVJYchchd9WxNzLBE-28" value="✔" style="shape=partialRectangle;html=1;whiteSpace=wrap;connectable=0;strokeColor=inherit;overflow=hidden;fillColor=none;top=0;left=0;bottom=0;right=0;pointerEvents=1;" vertex="1" parent="3DmnVJYchchd9WxNzLBE-25">
          <mxGeometry x="400" width="80" height="33" as="geometry">
            <mxRectangle width="80" height="33" as="alternateBounds" />
          </mxGeometry>
        </mxCell>
        <mxCell id="3DmnVJYchchd9WxNzLBE-29" value="✔" style="shape=partialRectangle;html=1;whiteSpace=wrap;connectable=0;strokeColor=inherit;overflow=hidden;fillColor=none;top=0;left=0;bottom=0;right=0;pointerEvents=1;" vertex="1" parent="3DmnVJYchchd9WxNzLBE-25">
          <mxGeometry x="480" width="80" height="33" as="geometry">
            <mxRectangle width="80" height="33" as="alternateBounds" />
          </mxGeometry>
        </mxCell>
        <mxCell id="3DmnVJYchchd9WxNzLBE-30" value="" style="shape=tableRow;horizontal=0;startSize=0;swimlaneHead=0;swimlaneBody=0;strokeColor=inherit;top=0;left=0;bottom=0;right=0;collapsible=0;dropTarget=0;fillColor=none;points=[[0,0.5],[1,0.5]];portConstraint=eastwest;" vertex="1" parent="3DmnVJYchchd9WxNzLBE-14">
          <mxGeometry y="99" width="560" height="33" as="geometry" />
        </mxCell>
        <mxCell id="3DmnVJYchchd9WxNzLBE-31" value="Kijelentkezés" style="shape=partialRectangle;html=1;whiteSpace=wrap;connectable=0;strokeColor=inherit;overflow=hidden;fillColor=none;top=0;left=0;bottom=0;right=0;pointerEvents=1;align=left;" vertex="1" parent="3DmnVJYchchd9WxNzLBE-30">
          <mxGeometry width="320" height="33" as="geometry">
            <mxRectangle width="320" height="33" as="alternateBounds" />
          </mxGeometry>
        </mxCell>
        <mxCell id="3DmnVJYchchd9WxNzLBE-32" value="✔" style="shape=partialRectangle;html=1;whiteSpace=wrap;connectable=0;strokeColor=inherit;overflow=hidden;fillColor=none;top=0;left=0;bottom=0;right=0;pointerEvents=1;" vertex="1" parent="3DmnVJYchchd9WxNzLBE-30">
          <mxGeometry x="320" width="80" height="33" as="geometry">
            <mxRectangle width="80" height="33" as="alternateBounds" />
          </mxGeometry>
        </mxCell>
        <mxCell id="3DmnVJYchchd9WxNzLBE-33" value="✔" style="shape=partialRectangle;html=1;whiteSpace=wrap;connectable=0;strokeColor=inherit;overflow=hidden;fillColor=none;top=0;left=0;bottom=0;right=0;pointerEvents=1;" vertex="1" parent="3DmnVJYchchd9WxNzLBE-30">
          <mxGeometry x="400" width="80" height="33" as="geometry">
            <mxRectangle width="80" height="33" as="alternateBounds" />
          </mxGeometry>
        </mxCell>
        <mxCell id="3DmnVJYchchd9WxNzLBE-34" value="✔" style="shape=partialRectangle;html=1;whiteSpace=wrap;connectable=0;strokeColor=inherit;overflow=hidden;fillColor=none;top=0;left=0;bottom=0;right=0;pointerEvents=1;" vertex="1" parent="3DmnVJYchchd9WxNzLBE-30">
          <mxGeometry x="480" width="80" height="33" as="geometry">
            <mxRectangle width="80" height="33" as="alternateBounds" />
          </mxGeometry>
        </mxCell>
        <mxCell id="3DmnVJYchchd9WxNzLBE-35" value="" style="shape=tableRow;horizontal=0;startSize=0;swimlaneHead=0;swimlaneBody=0;strokeColor=inherit;top=0;left=0;bottom=0;right=0;collapsible=0;dropTarget=0;fillColor=none;points=[[0,0.5],[1,0.5]];portConstraint=eastwest;" vertex="1" parent="3DmnVJYchchd9WxNzLBE-14">
          <mxGeometry y="132" width="560" height="33" as="geometry" />
        </mxCell>
        <mxCell id="3DmnVJYchchd9WxNzLBE-36" value="Felhasználói jogkör változtatása" style="shape=partialRectangle;html=1;whiteSpace=wrap;connectable=0;strokeColor=inherit;overflow=hidden;fillColor=none;top=0;left=0;bottom=0;right=0;pointerEvents=1;align=left;" vertex="1" parent="3DmnVJYchchd9WxNzLBE-35">
          <mxGeometry width="320" height="33" as="geometry">
            <mxRectangle width="320" height="33" as="alternateBounds" />
          </mxGeometry>
        </mxCell>
        <mxCell id="3DmnVJYchchd9WxNzLBE-37" value="✖" style="shape=partialRectangle;html=1;whiteSpace=wrap;connectable=0;strokeColor=inherit;overflow=hidden;fillColor=none;top=0;left=0;bottom=0;right=0;pointerEvents=1;" vertex="1" parent="3DmnVJYchchd9WxNzLBE-35">
          <mxGeometry x="320" width="80" height="33" as="geometry">
            <mxRectangle width="80" height="33" as="alternateBounds" />
          </mxGeometry>
        </mxCell>
        <mxCell id="3DmnVJYchchd9WxNzLBE-38" value="✖" style="shape=partialRectangle;html=1;whiteSpace=wrap;connectable=0;strokeColor=inherit;overflow=hidden;fillColor=none;top=0;left=0;bottom=0;right=0;pointerEvents=1;" vertex="1" parent="3DmnVJYchchd9WxNzLBE-35">
          <mxGeometry x="400" width="80" height="33" as="geometry">
            <mxRectangle width="80" height="33" as="alternateBounds" />
          </mxGeometry>
        </mxCell>
        <mxCell id="3DmnVJYchchd9WxNzLBE-39" value="✔" style="shape=partialRectangle;html=1;whiteSpace=wrap;connectable=0;strokeColor=inherit;overflow=hidden;fillColor=none;top=0;left=0;bottom=0;right=0;pointerEvents=1;" vertex="1" parent="3DmnVJYchchd9WxNzLBE-35">
          <mxGeometry x="480" width="80" height="33" as="geometry">
            <mxRectangle width="80" height="33" as="alternateBounds" />
          </mxGeometry>
        </mxCell>
        <mxCell id="3DmnVJYchchd9WxNzLBE-40" value="" style="shape=tableRow;horizontal=0;startSize=0;swimlaneHead=0;swimlaneBody=0;strokeColor=inherit;top=0;left=0;bottom=0;right=0;collapsible=0;dropTarget=0;fillColor=none;points=[[0,0.5],[1,0.5]];portConstraint=eastwest;" vertex="1" parent="3DmnVJYchchd9WxNzLBE-14">
          <mxGeometry y="165" width="560" height="33" as="geometry" />
        </mxCell>
        <mxCell id="3DmnVJYchchd9WxNzLBE-41" value="Felhasználói adatok módosítása" style="shape=partialRectangle;html=1;whiteSpace=wrap;connectable=0;strokeColor=inherit;overflow=hidden;fillColor=none;top=0;left=0;bottom=0;right=0;pointerEvents=1;align=left;" vertex="1" parent="3DmnVJYchchd9WxNzLBE-40">
          <mxGeometry width="320" height="33" as="geometry">
            <mxRectangle width="320" height="33" as="alternateBounds" />
          </mxGeometry>
        </mxCell>
        <mxCell id="3DmnVJYchchd9WxNzLBE-42" value="saját" style="shape=partialRectangle;html=1;whiteSpace=wrap;connectable=0;strokeColor=inherit;overflow=hidden;fillColor=none;top=0;left=0;bottom=0;right=0;pointerEvents=1;" vertex="1" parent="3DmnVJYchchd9WxNzLBE-40">
          <mxGeometry x="320" width="80" height="33" as="geometry">
            <mxRectangle width="80" height="33" as="alternateBounds" />
          </mxGeometry>
        </mxCell>
        <mxCell id="3DmnVJYchchd9WxNzLBE-43" value="saját" style="shape=partialRectangle;html=1;whiteSpace=wrap;connectable=0;strokeColor=inherit;overflow=hidden;fillColor=none;top=0;left=0;bottom=0;right=0;pointerEvents=1;" vertex="1" parent="3DmnVJYchchd9WxNzLBE-40">
          <mxGeometry x="400" width="80" height="33" as="geometry">
            <mxRectangle width="80" height="33" as="alternateBounds" />
          </mxGeometry>
        </mxCell>
        <mxCell id="3DmnVJYchchd9WxNzLBE-44" value="mindenki" style="shape=partialRectangle;html=1;whiteSpace=wrap;connectable=0;strokeColor=inherit;overflow=hidden;fillColor=none;top=0;left=0;bottom=0;right=0;pointerEvents=1;" vertex="1" parent="3DmnVJYchchd9WxNzLBE-40">
          <mxGeometry x="480" width="80" height="33" as="geometry">
            <mxRectangle width="80" height="33" as="alternateBounds" />
          </mxGeometry>
        </mxCell>
        <mxCell id="3DmnVJYchchd9WxNzLBE-45" value="" style="shape=tableRow;horizontal=0;startSize=0;swimlaneHead=0;swimlaneBody=0;strokeColor=inherit;top=0;left=0;bottom=0;right=0;collapsible=0;dropTarget=0;fillColor=none;points=[[0,0.5],[1,0.5]];portConstraint=eastwest;" vertex="1" parent="3DmnVJYchchd9WxNzLBE-14">
          <mxGeometry y="198" width="560" height="33" as="geometry" />
        </mxCell>
        <mxCell id="3DmnVJYchchd9WxNzLBE-46" value="Felhasználó törlése" style="shape=partialRectangle;html=1;whiteSpace=wrap;connectable=0;strokeColor=inherit;overflow=hidden;fillColor=none;top=0;left=0;bottom=0;right=0;pointerEvents=1;align=left;" vertex="1" parent="3DmnVJYchchd9WxNzLBE-45">
          <mxGeometry width="320" height="33" as="geometry">
            <mxRectangle width="320" height="33" as="alternateBounds" />
          </mxGeometry>
        </mxCell>
        <mxCell id="3DmnVJYchchd9WxNzLBE-47" value="✖" style="shape=partialRectangle;html=1;whiteSpace=wrap;connectable=0;strokeColor=inherit;overflow=hidden;fillColor=none;top=0;left=0;bottom=0;right=0;pointerEvents=1;" vertex="1" parent="3DmnVJYchchd9WxNzLBE-45">
          <mxGeometry x="320" width="80" height="33" as="geometry">
            <mxRectangle width="80" height="33" as="alternateBounds" />
          </mxGeometry>
        </mxCell>
        <mxCell id="3DmnVJYchchd9WxNzLBE-48" value="✖" style="shape=partialRectangle;html=1;whiteSpace=wrap;connectable=0;strokeColor=inherit;overflow=hidden;fillColor=none;top=0;left=0;bottom=0;right=0;pointerEvents=1;" vertex="1" parent="3DmnVJYchchd9WxNzLBE-45">
          <mxGeometry x="400" width="80" height="33" as="geometry">
            <mxRectangle width="80" height="33" as="alternateBounds" />
          </mxGeometry>
        </mxCell>
        <mxCell id="3DmnVJYchchd9WxNzLBE-49" value="✔" style="shape=partialRectangle;html=1;whiteSpace=wrap;connectable=0;strokeColor=inherit;overflow=hidden;fillColor=none;top=0;left=0;bottom=0;right=0;pointerEvents=1;" vertex="1" parent="3DmnVJYchchd9WxNzLBE-45">
          <mxGeometry x="480" width="80" height="33" as="geometry">
            <mxRectangle width="80" height="33" as="alternateBounds" />
          </mxGeometry>
        </mxCell>
        <mxCell id="3DmnVJYchchd9WxNzLBE-50" value="" style="shape=tableRow;horizontal=0;startSize=0;swimlaneHead=0;swimlaneBody=0;strokeColor=inherit;top=0;left=0;bottom=0;right=0;collapsible=0;dropTarget=0;fillColor=none;points=[[0,0.5],[1,0.5]];portConstraint=eastwest;" vertex="1" parent="3DmnVJYchchd9WxNzLBE-14">
          <mxGeometry y="231" width="560" height="33" as="geometry" />
        </mxCell>
        <mxCell id="3DmnVJYchchd9WxNzLBE-51" value="Ötletdoboz létrehozása" style="shape=partialRectangle;html=1;whiteSpace=wrap;connectable=0;strokeColor=inherit;overflow=hidden;fillColor=none;top=0;left=0;bottom=0;right=0;pointerEvents=1;align=left;" vertex="1" parent="3DmnVJYchchd9WxNzLBE-50">
          <mxGeometry width="320" height="33" as="geometry">
            <mxRectangle width="320" height="33" as="alternateBounds" />
          </mxGeometry>
        </mxCell>
        <mxCell id="3DmnVJYchchd9WxNzLBE-52" value="✖" style="shape=partialRectangle;html=1;whiteSpace=wrap;connectable=0;strokeColor=inherit;overflow=hidden;fillColor=none;top=0;left=0;bottom=0;right=0;pointerEvents=1;" vertex="1" parent="3DmnVJYchchd9WxNzLBE-50">
          <mxGeometry x="320" width="80" height="33" as="geometry">
            <mxRectangle width="80" height="33" as="alternateBounds" />
          </mxGeometry>
        </mxCell>
        <mxCell id="3DmnVJYchchd9WxNzLBE-53" value="✖" style="shape=partialRectangle;html=1;whiteSpace=wrap;connectable=0;strokeColor=inherit;overflow=hidden;fillColor=none;top=0;left=0;bottom=0;right=0;pointerEvents=1;" vertex="1" parent="3DmnVJYchchd9WxNzLBE-50">
          <mxGeometry x="400" width="80" height="33" as="geometry">
            <mxRectangle width="80" height="33" as="alternateBounds" />
          </mxGeometry>
        </mxCell>
        <mxCell id="3DmnVJYchchd9WxNzLBE-54" value="✔" style="shape=partialRectangle;html=1;whiteSpace=wrap;connectable=0;strokeColor=inherit;overflow=hidden;fillColor=none;top=0;left=0;bottom=0;right=0;pointerEvents=1;" vertex="1" parent="3DmnVJYchchd9WxNzLBE-50">
          <mxGeometry x="480" width="80" height="33" as="geometry">
            <mxRectangle width="80" height="33" as="alternateBounds" />
          </mxGeometry>
        </mxCell>
        <mxCell id="3DmnVJYchchd9WxNzLBE-55" value="" style="shape=tableRow;horizontal=0;startSize=0;swimlaneHead=0;swimlaneBody=0;strokeColor=inherit;top=0;left=0;bottom=0;right=0;collapsible=0;dropTarget=0;fillColor=none;points=[[0,0.5],[1,0.5]];portConstraint=eastwest;" vertex="1" parent="3DmnVJYchchd9WxNzLBE-14">
          <mxGeometry y="264" width="560" height="33" as="geometry" />
        </mxCell>
        <mxCell id="3DmnVJYchchd9WxNzLBE-56" value="Ötletdoboz szerkesztése, törlése" style="shape=partialRectangle;html=1;whiteSpace=wrap;connectable=0;strokeColor=inherit;overflow=hidden;fillColor=none;top=0;left=0;bottom=0;right=0;pointerEvents=1;align=left;" vertex="1" parent="3DmnVJYchchd9WxNzLBE-55">
          <mxGeometry width="320" height="33" as="geometry">
            <mxRectangle width="320" height="33" as="alternateBounds" />
          </mxGeometry>
        </mxCell>
        <mxCell id="3DmnVJYchchd9WxNzLBE-57" value="✖" style="shape=partialRectangle;html=1;whiteSpace=wrap;connectable=0;strokeColor=inherit;overflow=hidden;fillColor=none;top=0;left=0;bottom=0;right=0;pointerEvents=1;" vertex="1" parent="3DmnVJYchchd9WxNzLBE-55">
          <mxGeometry x="320" width="80" height="33" as="geometry">
            <mxRectangle width="80" height="33" as="alternateBounds" />
          </mxGeometry>
        </mxCell>
        <mxCell id="3DmnVJYchchd9WxNzLBE-58" value="✖" style="shape=partialRectangle;html=1;whiteSpace=wrap;connectable=0;strokeColor=inherit;overflow=hidden;fillColor=none;top=0;left=0;bottom=0;right=0;pointerEvents=1;" vertex="1" parent="3DmnVJYchchd9WxNzLBE-55">
          <mxGeometry x="400" width="80" height="33" as="geometry">
            <mxRectangle width="80" height="33" as="alternateBounds" />
          </mxGeometry>
        </mxCell>
        <mxCell id="3DmnVJYchchd9WxNzLBE-59" value="✔" style="shape=partialRectangle;html=1;whiteSpace=wrap;connectable=0;strokeColor=inherit;overflow=hidden;fillColor=none;top=0;left=0;bottom=0;right=0;pointerEvents=1;" vertex="1" parent="3DmnVJYchchd9WxNzLBE-55">
          <mxGeometry x="480" width="80" height="33" as="geometry">
            <mxRectangle width="80" height="33" as="alternateBounds" />
          </mxGeometry>
        </mxCell>
        <mxCell id="3DmnVJYchchd9WxNzLBE-60" value="" style="shape=tableRow;horizontal=0;startSize=0;swimlaneHead=0;swimlaneBody=0;strokeColor=inherit;top=0;left=0;bottom=0;right=0;collapsible=0;dropTarget=0;fillColor=none;points=[[0,0.5],[1,0.5]];portConstraint=eastwest;" vertex="1" parent="3DmnVJYchchd9WxNzLBE-14">
          <mxGeometry y="297" width="560" height="33" as="geometry" />
        </mxCell>
        <mxCell id="3DmnVJYchchd9WxNzLBE-61" value="Ötletdoboz megtekintése" style="shape=partialRectangle;html=1;whiteSpace=wrap;connectable=0;strokeColor=inherit;overflow=hidden;fillColor=none;top=0;left=0;bottom=0;right=0;pointerEvents=1;align=left;" vertex="1" parent="3DmnVJYchchd9WxNzLBE-60">
          <mxGeometry width="320" height="33" as="geometry">
            <mxRectangle width="320" height="33" as="alternateBounds" />
          </mxGeometry>
        </mxCell>
        <mxCell id="3DmnVJYchchd9WxNzLBE-62" value="✔" style="shape=partialRectangle;html=1;whiteSpace=wrap;connectable=0;strokeColor=inherit;overflow=hidden;fillColor=none;top=0;left=0;bottom=0;right=0;pointerEvents=1;" vertex="1" parent="3DmnVJYchchd9WxNzLBE-60">
          <mxGeometry x="320" width="80" height="33" as="geometry">
            <mxRectangle width="80" height="33" as="alternateBounds" />
          </mxGeometry>
        </mxCell>
        <mxCell id="3DmnVJYchchd9WxNzLBE-63" value="✔" style="shape=partialRectangle;html=1;whiteSpace=wrap;connectable=0;strokeColor=inherit;overflow=hidden;fillColor=none;top=0;left=0;bottom=0;right=0;pointerEvents=1;" vertex="1" parent="3DmnVJYchchd9WxNzLBE-60">
          <mxGeometry x="400" width="80" height="33" as="geometry">
            <mxRectangle width="80" height="33" as="alternateBounds" />
          </mxGeometry>
        </mxCell>
        <mxCell id="3DmnVJYchchd9WxNzLBE-64" value="✔" style="shape=partialRectangle;html=1;whiteSpace=wrap;connectable=0;strokeColor=inherit;overflow=hidden;fillColor=none;top=0;left=0;bottom=0;right=0;pointerEvents=1;" vertex="1" parent="3DmnVJYchchd9WxNzLBE-60">
          <mxGeometry x="480" width="80" height="33" as="geometry">
            <mxRectangle width="80" height="33" as="alternateBounds" />
          </mxGeometry>
        </mxCell>
        <mxCell id="3DmnVJYchchd9WxNzLBE-75" value="" style="shape=tableRow;horizontal=0;startSize=0;swimlaneHead=0;swimlaneBody=0;strokeColor=inherit;top=0;left=0;bottom=0;right=0;collapsible=0;dropTarget=0;fillColor=none;points=[[0,0.5],[1,0.5]];portConstraint=eastwest;" vertex="1" parent="3DmnVJYchchd9WxNzLBE-14">
          <mxGeometry y="330" width="560" height="33" as="geometry" />
        </mxCell>
        <mxCell id="3DmnVJYchchd9WxNzLBE-76" value="Ötlet létrehozása" style="shape=partialRectangle;html=1;whiteSpace=wrap;connectable=0;strokeColor=inherit;overflow=hidden;fillColor=none;top=0;left=0;bottom=0;right=0;pointerEvents=1;align=left;" vertex="1" parent="3DmnVJYchchd9WxNzLBE-75">
          <mxGeometry width="320" height="33" as="geometry">
            <mxRectangle width="320" height="33" as="alternateBounds" />
          </mxGeometry>
        </mxCell>
        <mxCell id="3DmnVJYchchd9WxNzLBE-77" value="✔" style="shape=partialRectangle;html=1;whiteSpace=wrap;connectable=0;strokeColor=inherit;overflow=hidden;fillColor=none;top=0;left=0;bottom=0;right=0;pointerEvents=1;" vertex="1" parent="3DmnVJYchchd9WxNzLBE-75">
          <mxGeometry x="320" width="80" height="33" as="geometry">
            <mxRectangle width="80" height="33" as="alternateBounds" />
          </mxGeometry>
        </mxCell>
        <mxCell id="3DmnVJYchchd9WxNzLBE-78" value="✔" style="shape=partialRectangle;html=1;whiteSpace=wrap;connectable=0;strokeColor=inherit;overflow=hidden;fillColor=none;top=0;left=0;bottom=0;right=0;pointerEvents=1;" vertex="1" parent="3DmnVJYchchd9WxNzLBE-75">
          <mxGeometry x="400" width="80" height="33" as="geometry">
            <mxRectangle width="80" height="33" as="alternateBounds" />
          </mxGeometry>
        </mxCell>
        <mxCell id="3DmnVJYchchd9WxNzLBE-79" value="✔" style="shape=partialRectangle;html=1;whiteSpace=wrap;connectable=0;strokeColor=inherit;overflow=hidden;fillColor=none;top=0;left=0;bottom=0;right=0;pointerEvents=1;" vertex="1" parent="3DmnVJYchchd9WxNzLBE-75">
          <mxGeometry x="480" width="80" height="33" as="geometry">
            <mxRectangle width="80" height="33" as="alternateBounds" />
          </mxGeometry>
        </mxCell>
        <mxCell id="3DmnVJYchchd9WxNzLBE-80" value="" style="shape=tableRow;horizontal=0;startSize=0;swimlaneHead=0;swimlaneBody=0;strokeColor=inherit;top=0;left=0;bottom=0;right=0;collapsible=0;dropTarget=0;fillColor=none;points=[[0,0.5],[1,0.5]];portConstraint=eastwest;" vertex="1" parent="3DmnVJYchchd9WxNzLBE-14">
          <mxGeometry y="363" width="560" height="33" as="geometry" />
        </mxCell>
        <mxCell id="3DmnVJYchchd9WxNzLBE-81" value="Ötlet szerkesztése" style="shape=partialRectangle;html=1;whiteSpace=wrap;connectable=0;strokeColor=inherit;overflow=hidden;fillColor=none;top=0;left=0;bottom=0;right=0;pointerEvents=1;align=left;" vertex="1" parent="3DmnVJYchchd9WxNzLBE-80">
          <mxGeometry width="320" height="33" as="geometry">
            <mxRectangle width="320" height="33" as="alternateBounds" />
          </mxGeometry>
        </mxCell>
        <mxCell id="3DmnVJYchchd9WxNzLBE-82" value="saját" style="shape=partialRectangle;html=1;whiteSpace=wrap;connectable=0;strokeColor=inherit;overflow=hidden;fillColor=none;top=0;left=0;bottom=0;right=0;pointerEvents=1;" vertex="1" parent="3DmnVJYchchd9WxNzLBE-80">
          <mxGeometry x="320" width="80" height="33" as="geometry">
            <mxRectangle width="80" height="33" as="alternateBounds" />
          </mxGeometry>
        </mxCell>
        <mxCell id="3DmnVJYchchd9WxNzLBE-83" value="saját" style="shape=partialRectangle;html=1;whiteSpace=wrap;connectable=0;strokeColor=inherit;overflow=hidden;fillColor=none;top=0;left=0;bottom=0;right=0;pointerEvents=1;" vertex="1" parent="3DmnVJYchchd9WxNzLBE-80">
          <mxGeometry x="400" width="80" height="33" as="geometry">
            <mxRectangle width="80" height="33" as="alternateBounds" />
          </mxGeometry>
        </mxCell>
        <mxCell id="3DmnVJYchchd9WxNzLBE-84" value="mindenki" style="shape=partialRectangle;html=1;whiteSpace=wrap;connectable=0;strokeColor=inherit;overflow=hidden;fillColor=none;top=0;left=0;bottom=0;right=0;pointerEvents=1;" vertex="1" parent="3DmnVJYchchd9WxNzLBE-80">
          <mxGeometry x="480" width="80" height="33" as="geometry">
            <mxRectangle width="80" height="33" as="alternateBounds" />
          </mxGeometry>
        </mxCell>
        <mxCell id="3DmnVJYchchd9WxNzLBE-85" value="" style="shape=tableRow;horizontal=0;startSize=0;swimlaneHead=0;swimlaneBody=0;strokeColor=inherit;top=0;left=0;bottom=0;right=0;collapsible=0;dropTarget=0;fillColor=none;points=[[0,0.5],[1,0.5]];portConstraint=eastwest;" vertex="1" parent="3DmnVJYchchd9WxNzLBE-14">
          <mxGeometry y="396" width="560" height="33" as="geometry" />
        </mxCell>
        <mxCell id="3DmnVJYchchd9WxNzLBE-86" value="Ötlet törlése" style="shape=partialRectangle;html=1;whiteSpace=wrap;connectable=0;strokeColor=inherit;overflow=hidden;fillColor=none;top=0;left=0;bottom=0;right=0;pointerEvents=1;align=left;" vertex="1" parent="3DmnVJYchchd9WxNzLBE-85">
          <mxGeometry width="320" height="33" as="geometry">
            <mxRectangle width="320" height="33" as="alternateBounds" />
          </mxGeometry>
        </mxCell>
        <mxCell id="3DmnVJYchchd9WxNzLBE-87" value="✖" style="shape=partialRectangle;html=1;whiteSpace=wrap;connectable=0;strokeColor=inherit;overflow=hidden;fillColor=none;top=0;left=0;bottom=0;right=0;pointerEvents=1;" vertex="1" parent="3DmnVJYchchd9WxNzLBE-85">
          <mxGeometry x="320" width="80" height="33" as="geometry">
            <mxRectangle width="80" height="33" as="alternateBounds" />
          </mxGeometry>
        </mxCell>
        <mxCell id="3DmnVJYchchd9WxNzLBE-88" value="✖" style="shape=partialRectangle;html=1;whiteSpace=wrap;connectable=0;strokeColor=inherit;overflow=hidden;fillColor=none;top=0;left=0;bottom=0;right=0;pointerEvents=1;" vertex="1" parent="3DmnVJYchchd9WxNzLBE-85">
          <mxGeometry x="400" width="80" height="33" as="geometry">
            <mxRectangle width="80" height="33" as="alternateBounds" />
          </mxGeometry>
        </mxCell>
        <mxCell id="3DmnVJYchchd9WxNzLBE-89" value="✔" style="shape=partialRectangle;html=1;whiteSpace=wrap;connectable=0;strokeColor=inherit;overflow=hidden;fillColor=none;top=0;left=0;bottom=0;right=0;pointerEvents=1;" vertex="1" parent="3DmnVJYchchd9WxNzLBE-85">
          <mxGeometry x="480" width="80" height="33" as="geometry">
            <mxRectangle width="80" height="33" as="alternateBounds" />
          </mxGeometry>
        </mxCell>
        <mxCell id="3DmnVJYchchd9WxNzLBE-90" value="" style="shape=tableRow;horizontal=0;startSize=0;swimlaneHead=0;swimlaneBody=0;strokeColor=inherit;top=0;left=0;bottom=0;right=0;collapsible=0;dropTarget=0;fillColor=none;points=[[0,0.5],[1,0.5]];portConstraint=eastwest;" vertex="1" parent="3DmnVJYchchd9WxNzLBE-14">
          <mxGeometry y="429" width="560" height="33" as="geometry" />
        </mxCell>
        <mxCell id="3DmnVJYchchd9WxNzLBE-91" value="Ötlet megtekintése" style="shape=partialRectangle;html=1;whiteSpace=wrap;connectable=0;strokeColor=inherit;overflow=hidden;fillColor=none;top=0;left=0;bottom=0;right=0;pointerEvents=1;align=left;" vertex="1" parent="3DmnVJYchchd9WxNzLBE-90">
          <mxGeometry width="320" height="33" as="geometry">
            <mxRectangle width="320" height="33" as="alternateBounds" />
          </mxGeometry>
        </mxCell>
        <mxCell id="3DmnVJYchchd9WxNzLBE-92" value="✔" style="shape=partialRectangle;html=1;whiteSpace=wrap;connectable=0;strokeColor=inherit;overflow=hidden;fillColor=none;top=0;left=0;bottom=0;right=0;pointerEvents=1;" vertex="1" parent="3DmnVJYchchd9WxNzLBE-90">
          <mxGeometry x="320" width="80" height="33" as="geometry">
            <mxRectangle width="80" height="33" as="alternateBounds" />
          </mxGeometry>
        </mxCell>
        <mxCell id="3DmnVJYchchd9WxNzLBE-93" value="✔" style="shape=partialRectangle;html=1;whiteSpace=wrap;connectable=0;strokeColor=inherit;overflow=hidden;fillColor=none;top=0;left=0;bottom=0;right=0;pointerEvents=1;" vertex="1" parent="3DmnVJYchchd9WxNzLBE-90">
          <mxGeometry x="400" width="80" height="33" as="geometry">
            <mxRectangle width="80" height="33" as="alternateBounds" />
          </mxGeometry>
        </mxCell>
        <mxCell id="3DmnVJYchchd9WxNzLBE-94" value="✔" style="shape=partialRectangle;html=1;whiteSpace=wrap;connectable=0;strokeColor=inherit;overflow=hidden;fillColor=none;top=0;left=0;bottom=0;right=0;pointerEvents=1;" vertex="1" parent="3DmnVJYchchd9WxNzLBE-90">
          <mxGeometry x="480" width="80" height="33" as="geometry">
            <mxRectangle width="80" height="33" as="alternateBounds" />
          </mxGeometry>
        </mxCell>
        <mxCell id="3DmnVJYchchd9WxNzLBE-95" value="" style="shape=tableRow;horizontal=0;startSize=0;swimlaneHead=0;swimlaneBody=0;strokeColor=inherit;top=0;left=0;bottom=0;right=0;collapsible=0;dropTarget=0;fillColor=none;points=[[0,0.5],[1,0.5]];portConstraint=eastwest;" vertex="1" parent="3DmnVJYchchd9WxNzLBE-14">
          <mxGeometry y="462" width="560" height="33" as="geometry" />
        </mxCell>
        <mxCell id="3DmnVJYchchd9WxNzLBE-96" value="Ötlet likeolása/dislikeolása" style="shape=partialRectangle;html=1;whiteSpace=wrap;connectable=0;strokeColor=inherit;overflow=hidden;fillColor=none;top=0;left=0;bottom=0;right=0;pointerEvents=1;align=left;" vertex="1" parent="3DmnVJYchchd9WxNzLBE-95">
          <mxGeometry width="320" height="33" as="geometry">
            <mxRectangle width="320" height="33" as="alternateBounds" />
          </mxGeometry>
        </mxCell>
        <mxCell id="3DmnVJYchchd9WxNzLBE-97" value="✔" style="shape=partialRectangle;html=1;whiteSpace=wrap;connectable=0;strokeColor=inherit;overflow=hidden;fillColor=none;top=0;left=0;bottom=0;right=0;pointerEvents=1;" vertex="1" parent="3DmnVJYchchd9WxNzLBE-95">
          <mxGeometry x="320" width="80" height="33" as="geometry">
            <mxRectangle width="80" height="33" as="alternateBounds" />
          </mxGeometry>
        </mxCell>
        <mxCell id="3DmnVJYchchd9WxNzLBE-98" value="✔" style="shape=partialRectangle;html=1;whiteSpace=wrap;connectable=0;strokeColor=inherit;overflow=hidden;fillColor=none;top=0;left=0;bottom=0;right=0;pointerEvents=1;" vertex="1" parent="3DmnVJYchchd9WxNzLBE-95">
          <mxGeometry x="400" width="80" height="33" as="geometry">
            <mxRectangle width="80" height="33" as="alternateBounds" />
          </mxGeometry>
        </mxCell>
        <mxCell id="3DmnVJYchchd9WxNzLBE-99" value="✔" style="shape=partialRectangle;html=1;whiteSpace=wrap;connectable=0;strokeColor=inherit;overflow=hidden;fillColor=none;top=0;left=0;bottom=0;right=0;pointerEvents=1;" vertex="1" parent="3DmnVJYchchd9WxNzLBE-95">
          <mxGeometry x="480" width="80" height="33" as="geometry">
            <mxRectangle width="80" height="33" as="alternateBounds" />
          </mxGeometry>
        </mxCell>
        <mxCell id="3DmnVJYchchd9WxNzLBE-100" value="" style="shape=tableRow;horizontal=0;startSize=0;swimlaneHead=0;swimlaneBody=0;strokeColor=inherit;top=0;left=0;bottom=0;right=0;collapsible=0;dropTarget=0;fillColor=none;points=[[0,0.5],[1,0.5]];portConstraint=eastwest;" vertex="1" parent="3DmnVJYchchd9WxNzLBE-14">
          <mxGeometry y="495" width="560" height="33" as="geometry" />
        </mxCell>
        <mxCell id="3DmnVJYchchd9WxNzLBE-101" value="Komment írás ötlethez" style="shape=partialRectangle;html=1;whiteSpace=wrap;connectable=0;strokeColor=inherit;overflow=hidden;fillColor=none;top=0;left=0;bottom=0;right=0;pointerEvents=1;align=left;" vertex="1" parent="3DmnVJYchchd9WxNzLBE-100">
          <mxGeometry width="320" height="33" as="geometry">
            <mxRectangle width="320" height="33" as="alternateBounds" />
          </mxGeometry>
        </mxCell>
        <mxCell id="3DmnVJYchchd9WxNzLBE-102" value="✔" style="shape=partialRectangle;html=1;whiteSpace=wrap;connectable=0;strokeColor=inherit;overflow=hidden;fillColor=none;top=0;left=0;bottom=0;right=0;pointerEvents=1;" vertex="1" parent="3DmnVJYchchd9WxNzLBE-100">
          <mxGeometry x="320" width="80" height="33" as="geometry">
            <mxRectangle width="80" height="33" as="alternateBounds" />
          </mxGeometry>
        </mxCell>
        <mxCell id="3DmnVJYchchd9WxNzLBE-103" value="✔" style="shape=partialRectangle;html=1;whiteSpace=wrap;connectable=0;strokeColor=inherit;overflow=hidden;fillColor=none;top=0;left=0;bottom=0;right=0;pointerEvents=1;" vertex="1" parent="3DmnVJYchchd9WxNzLBE-100">
          <mxGeometry x="400" width="80" height="33" as="geometry">
            <mxRectangle width="80" height="33" as="alternateBounds" />
          </mxGeometry>
        </mxCell>
        <mxCell id="3DmnVJYchchd9WxNzLBE-104" value="✔" style="shape=partialRectangle;html=1;whiteSpace=wrap;connectable=0;strokeColor=inherit;overflow=hidden;fillColor=none;top=0;left=0;bottom=0;right=0;pointerEvents=1;" vertex="1" parent="3DmnVJYchchd9WxNzLBE-100">
          <mxGeometry x="480" width="80" height="33" as="geometry">
            <mxRectangle width="80" height="33" as="alternateBounds" />
          </mxGeometry>
        </mxCell>
        <mxCell id="3DmnVJYchchd9WxNzLBE-105" value="" style="shape=tableRow;horizontal=0;startSize=0;swimlaneHead=0;swimlaneBody=0;strokeColor=inherit;top=0;left=0;bottom=0;right=0;collapsible=0;dropTarget=0;fillColor=none;points=[[0,0.5],[1,0.5]];portConstraint=eastwest;" vertex="1" parent="3DmnVJYchchd9WxNzLBE-14">
          <mxGeometry y="528" width="560" height="33" as="geometry" />
        </mxCell>
        <mxCell id="3DmnVJYchchd9WxNzLBE-106" value="Komment szerkesztése" style="shape=partialRectangle;html=1;whiteSpace=wrap;connectable=0;strokeColor=inherit;overflow=hidden;fillColor=none;top=0;left=0;bottom=0;right=0;pointerEvents=1;align=left;" vertex="1" parent="3DmnVJYchchd9WxNzLBE-105">
          <mxGeometry width="320" height="33" as="geometry">
            <mxRectangle width="320" height="33" as="alternateBounds" />
          </mxGeometry>
        </mxCell>
        <mxCell id="3DmnVJYchchd9WxNzLBE-107" value="saját" style="shape=partialRectangle;html=1;whiteSpace=wrap;connectable=0;strokeColor=inherit;overflow=hidden;fillColor=none;top=0;left=0;bottom=0;right=0;pointerEvents=1;" vertex="1" parent="3DmnVJYchchd9WxNzLBE-105">
          <mxGeometry x="320" width="80" height="33" as="geometry">
            <mxRectangle width="80" height="33" as="alternateBounds" />
          </mxGeometry>
        </mxCell>
        <mxCell id="3DmnVJYchchd9WxNzLBE-108" value="saját" style="shape=partialRectangle;html=1;whiteSpace=wrap;connectable=0;strokeColor=inherit;overflow=hidden;fillColor=none;top=0;left=0;bottom=0;right=0;pointerEvents=1;" vertex="1" parent="3DmnVJYchchd9WxNzLBE-105">
          <mxGeometry x="400" width="80" height="33" as="geometry">
            <mxRectangle width="80" height="33" as="alternateBounds" />
          </mxGeometry>
        </mxCell>
        <mxCell id="3DmnVJYchchd9WxNzLBE-109" value="mindenki" style="shape=partialRectangle;html=1;whiteSpace=wrap;connectable=0;strokeColor=inherit;overflow=hidden;fillColor=none;top=0;left=0;bottom=0;right=0;pointerEvents=1;" vertex="1" parent="3DmnVJYchchd9WxNzLBE-105">
          <mxGeometry x="480" width="80" height="33" as="geometry">
            <mxRectangle width="80" height="33" as="alternateBounds" />
          </mxGeometry>
        </mxCell>
        <mxCell id="3DmnVJYchchd9WxNzLBE-228" value="" style="shape=tableRow;horizontal=0;startSize=0;swimlaneHead=0;swimlaneBody=0;strokeColor=inherit;top=0;left=0;bottom=0;right=0;collapsible=0;dropTarget=0;fillColor=none;points=[[0,0.5],[1,0.5]];portConstraint=eastwest;" vertex="1" parent="3DmnVJYchchd9WxNzLBE-14">
          <mxGeometry y="561" width="560" height="33" as="geometry" />
        </mxCell>
        <mxCell id="3DmnVJYchchd9WxNzLBE-229" value="Komment likeolása/dislikeolása" style="shape=partialRectangle;html=1;whiteSpace=wrap;connectable=0;strokeColor=inherit;overflow=hidden;fillColor=none;top=0;left=0;bottom=0;right=0;pointerEvents=1;align=left;" vertex="1" parent="3DmnVJYchchd9WxNzLBE-228">
          <mxGeometry width="320" height="33" as="geometry">
            <mxRectangle width="320" height="33" as="alternateBounds" />
          </mxGeometry>
        </mxCell>
        <mxCell id="3DmnVJYchchd9WxNzLBE-230" value="✔" style="shape=partialRectangle;html=1;whiteSpace=wrap;connectable=0;strokeColor=inherit;overflow=hidden;fillColor=none;top=0;left=0;bottom=0;right=0;pointerEvents=1;" vertex="1" parent="3DmnVJYchchd9WxNzLBE-228">
          <mxGeometry x="320" width="80" height="33" as="geometry">
            <mxRectangle width="80" height="33" as="alternateBounds" />
          </mxGeometry>
        </mxCell>
        <mxCell id="3DmnVJYchchd9WxNzLBE-231" value="✔" style="shape=partialRectangle;html=1;whiteSpace=wrap;connectable=0;strokeColor=inherit;overflow=hidden;fillColor=none;top=0;left=0;bottom=0;right=0;pointerEvents=1;" vertex="1" parent="3DmnVJYchchd9WxNzLBE-228">
          <mxGeometry x="400" width="80" height="33" as="geometry">
            <mxRectangle width="80" height="33" as="alternateBounds" />
          </mxGeometry>
        </mxCell>
        <mxCell id="3DmnVJYchchd9WxNzLBE-232" value="✔" style="shape=partialRectangle;html=1;whiteSpace=wrap;connectable=0;strokeColor=inherit;overflow=hidden;fillColor=none;top=0;left=0;bottom=0;right=0;pointerEvents=1;" vertex="1" parent="3DmnVJYchchd9WxNzLBE-228">
          <mxGeometry x="480" width="80" height="33" as="geometry">
            <mxRectangle width="80" height="33" as="alternateBounds" />
          </mxGeometry>
        </mxCell>
        <mxCell id="3DmnVJYchchd9WxNzLBE-110" value="" style="shape=tableRow;horizontal=0;startSize=0;swimlaneHead=0;swimlaneBody=0;strokeColor=inherit;top=0;left=0;bottom=0;right=0;collapsible=0;dropTarget=0;fillColor=none;points=[[0,0.5],[1,0.5]];portConstraint=eastwest;" vertex="1" parent="3DmnVJYchchd9WxNzLBE-14">
          <mxGeometry y="594" width="560" height="33" as="geometry" />
        </mxCell>
        <mxCell id="3DmnVJYchchd9WxNzLBE-111" value="Saját ötletek listázása (Profile page)" style="shape=partialRectangle;html=1;whiteSpace=wrap;connectable=0;strokeColor=inherit;overflow=hidden;fillColor=none;top=0;left=0;bottom=0;right=0;pointerEvents=1;align=left;" vertex="1" parent="3DmnVJYchchd9WxNzLBE-110">
          <mxGeometry width="320" height="33" as="geometry">
            <mxRectangle width="320" height="33" as="alternateBounds" />
          </mxGeometry>
        </mxCell>
        <mxCell id="3DmnVJYchchd9WxNzLBE-112" value="✔" style="shape=partialRectangle;html=1;whiteSpace=wrap;connectable=0;strokeColor=inherit;overflow=hidden;fillColor=none;top=0;left=0;bottom=0;right=0;pointerEvents=1;" vertex="1" parent="3DmnVJYchchd9WxNzLBE-110">
          <mxGeometry x="320" width="80" height="33" as="geometry">
            <mxRectangle width="80" height="33" as="alternateBounds" />
          </mxGeometry>
        </mxCell>
        <mxCell id="3DmnVJYchchd9WxNzLBE-113" value="✔" style="shape=partialRectangle;html=1;whiteSpace=wrap;connectable=0;strokeColor=inherit;overflow=hidden;fillColor=none;top=0;left=0;bottom=0;right=0;pointerEvents=1;" vertex="1" parent="3DmnVJYchchd9WxNzLBE-110">
          <mxGeometry x="400" width="80" height="33" as="geometry">
            <mxRectangle width="80" height="33" as="alternateBounds" />
          </mxGeometry>
        </mxCell>
        <mxCell id="3DmnVJYchchd9WxNzLBE-114" value="✔" style="shape=partialRectangle;html=1;whiteSpace=wrap;connectable=0;strokeColor=inherit;overflow=hidden;fillColor=none;top=0;left=0;bottom=0;right=0;pointerEvents=1;" vertex="1" parent="3DmnVJYchchd9WxNzLBE-110">
          <mxGeometry x="480" width="80" height="33" as="geometry">
            <mxRectangle width="80" height="33" as="alternateBounds" />
          </mxGeometry>
        </mxCell>
        <mxCell id="3DmnVJYchchd9WxNzLBE-238" value="" style="shape=tableRow;horizontal=0;startSize=0;swimlaneHead=0;swimlaneBody=0;strokeColor=inherit;top=0;left=0;bottom=0;right=0;collapsible=0;dropTarget=0;fillColor=none;points=[[0,0.5],[1,0.5]];portConstraint=eastwest;" vertex="1" parent="3DmnVJYchchd9WxNzLBE-14">
          <mxGeometry y="627" width="560" height="33" as="geometry" />
        </mxCell>
        <mxCell id="3DmnVJYchchd9WxNzLBE-239" value="Saját ötletdobozok listázása (Profile page)" style="shape=partialRectangle;html=1;whiteSpace=wrap;connectable=0;strokeColor=inherit;overflow=hidden;fillColor=none;top=0;left=0;bottom=0;right=0;pointerEvents=1;align=left;" vertex="1" parent="3DmnVJYchchd9WxNzLBE-238">
          <mxGeometry width="320" height="33" as="geometry">
            <mxRectangle width="320" height="33" as="alternateBounds" />
          </mxGeometry>
        </mxCell>
        <mxCell id="3DmnVJYchchd9WxNzLBE-240" value="✖" style="shape=partialRectangle;html=1;whiteSpace=wrap;connectable=0;strokeColor=inherit;overflow=hidden;fillColor=none;top=0;left=0;bottom=0;right=0;pointerEvents=1;" vertex="1" parent="3DmnVJYchchd9WxNzLBE-238">
          <mxGeometry x="320" width="80" height="33" as="geometry">
            <mxRectangle width="80" height="33" as="alternateBounds" />
          </mxGeometry>
        </mxCell>
        <mxCell id="3DmnVJYchchd9WxNzLBE-241" value="✖" style="shape=partialRectangle;html=1;whiteSpace=wrap;connectable=0;strokeColor=inherit;overflow=hidden;fillColor=none;top=0;left=0;bottom=0;right=0;pointerEvents=1;" vertex="1" parent="3DmnVJYchchd9WxNzLBE-238">
          <mxGeometry x="400" width="80" height="33" as="geometry">
            <mxRectangle width="80" height="33" as="alternateBounds" />
          </mxGeometry>
        </mxCell>
        <mxCell id="3DmnVJYchchd9WxNzLBE-242" value="✔" style="shape=partialRectangle;html=1;whiteSpace=wrap;connectable=0;strokeColor=inherit;overflow=hidden;fillColor=none;top=0;left=0;bottom=0;right=0;pointerEvents=1;" vertex="1" parent="3DmnVJYchchd9WxNzLBE-238">
          <mxGeometry x="480" width="80" height="33" as="geometry">
            <mxRectangle width="80" height="33" as="alternateBounds" />
          </mxGeometry>
        </mxCell>
        <mxCell id="3DmnVJYchchd9WxNzLBE-243" value="" style="shape=tableRow;horizontal=0;startSize=0;swimlaneHead=0;swimlaneBody=0;strokeColor=inherit;top=0;left=0;bottom=0;right=0;collapsible=0;dropTarget=0;fillColor=none;points=[[0,0.5],[1,0.5]];portConstraint=eastwest;" vertex="1" parent="3DmnVJYchchd9WxNzLBE-14">
          <mxGeometry y="660" width="560" height="33" as="geometry" />
        </mxCell>
        <mxCell id="3DmnVJYchchd9WxNzLBE-244" value="Hamarosan lejáró ötletek listázása (Profile page)" style="shape=partialRectangle;html=1;whiteSpace=wrap;connectable=0;strokeColor=inherit;overflow=hidden;fillColor=none;top=0;left=0;bottom=0;right=0;pointerEvents=1;align=left;" vertex="1" parent="3DmnVJYchchd9WxNzLBE-243">
          <mxGeometry width="320" height="33" as="geometry">
            <mxRectangle width="320" height="33" as="alternateBounds" />
          </mxGeometry>
        </mxCell>
        <mxCell id="3DmnVJYchchd9WxNzLBE-245" value="✖" style="shape=partialRectangle;html=1;whiteSpace=wrap;connectable=0;strokeColor=inherit;overflow=hidden;fillColor=none;top=0;left=0;bottom=0;right=0;pointerEvents=1;" vertex="1" parent="3DmnVJYchchd9WxNzLBE-243">
          <mxGeometry x="320" width="80" height="33" as="geometry">
            <mxRectangle width="80" height="33" as="alternateBounds" />
          </mxGeometry>
        </mxCell>
        <mxCell id="3DmnVJYchchd9WxNzLBE-246" value="✔" style="shape=partialRectangle;html=1;whiteSpace=wrap;connectable=0;strokeColor=inherit;overflow=hidden;fillColor=none;top=0;left=0;bottom=0;right=0;pointerEvents=1;" vertex="1" parent="3DmnVJYchchd9WxNzLBE-243">
          <mxGeometry x="400" width="80" height="33" as="geometry">
            <mxRectangle width="80" height="33" as="alternateBounds" />
          </mxGeometry>
        </mxCell>
        <mxCell id="3DmnVJYchchd9WxNzLBE-247" value="✔" style="shape=partialRectangle;html=1;whiteSpace=wrap;connectable=0;strokeColor=inherit;overflow=hidden;fillColor=none;top=0;left=0;bottom=0;right=0;pointerEvents=1;" vertex="1" parent="3DmnVJYchchd9WxNzLBE-243">
          <mxGeometry x="480" width="80" height="33" as="geometry">
            <mxRectangle width="80" height="33" as="alternateBounds" />
          </mxGeometry>
        </mxCell>
        <mxCell id="3DmnVJYchchd9WxNzLBE-248" value="" style="shape=tableRow;horizontal=0;startSize=0;swimlaneHead=0;swimlaneBody=0;strokeColor=inherit;top=0;left=0;bottom=0;right=0;collapsible=0;dropTarget=0;fillColor=none;points=[[0,0.5],[1,0.5]];portConstraint=eastwest;" vertex="1" parent="3DmnVJYchchd9WxNzLBE-14">
          <mxGeometry y="693" width="560" height="33" as="geometry" />
        </mxCell>
        <mxCell id="3DmnVJYchchd9WxNzLBE-249" value="Értékelt ötletek listázása (Profile page)" style="shape=partialRectangle;html=1;whiteSpace=wrap;connectable=0;strokeColor=inherit;overflow=hidden;fillColor=none;top=0;left=0;bottom=0;right=0;pointerEvents=1;align=left;" vertex="1" parent="3DmnVJYchchd9WxNzLBE-248">
          <mxGeometry width="320" height="33" as="geometry">
            <mxRectangle width="320" height="33" as="alternateBounds" />
          </mxGeometry>
        </mxCell>
        <mxCell id="3DmnVJYchchd9WxNzLBE-250" value="✖" style="shape=partialRectangle;html=1;whiteSpace=wrap;connectable=0;strokeColor=inherit;overflow=hidden;fillColor=none;top=0;left=0;bottom=0;right=0;pointerEvents=1;" vertex="1" parent="3DmnVJYchchd9WxNzLBE-248">
          <mxGeometry x="320" width="80" height="33" as="geometry">
            <mxRectangle width="80" height="33" as="alternateBounds" />
          </mxGeometry>
        </mxCell>
        <mxCell id="3DmnVJYchchd9WxNzLBE-251" value="✔" style="shape=partialRectangle;html=1;whiteSpace=wrap;connectable=0;strokeColor=inherit;overflow=hidden;fillColor=none;top=0;left=0;bottom=0;right=0;pointerEvents=1;" vertex="1" parent="3DmnVJYchchd9WxNzLBE-248">
          <mxGeometry x="400" width="80" height="33" as="geometry">
            <mxRectangle width="80" height="33" as="alternateBounds" />
          </mxGeometry>
        </mxCell>
        <mxCell id="3DmnVJYchchd9WxNzLBE-252" value="✔" style="shape=partialRectangle;html=1;whiteSpace=wrap;connectable=0;strokeColor=inherit;overflow=hidden;fillColor=none;top=0;left=0;bottom=0;right=0;pointerEvents=1;" vertex="1" parent="3DmnVJYchchd9WxNzLBE-248">
          <mxGeometry x="480" width="80" height="33" as="geometry">
            <mxRectangle width="80" height="33" as="alternateBounds" />
          </mxGeometry>
        </mxCell>
        <mxCell id="3DmnVJYchchd9WxNzLBE-253" value="" style="shape=tableRow;horizontal=0;startSize=0;swimlaneHead=0;swimlaneBody=0;strokeColor=inherit;top=0;left=0;bottom=0;right=0;collapsible=0;dropTarget=0;fillColor=none;points=[[0,0.5],[1,0.5]];portConstraint=eastwest;" vertex="1" parent="3DmnVJYchchd9WxNzLBE-14">
          <mxGeometry y="726" width="560" height="33" as="geometry" />
        </mxCell>
        <mxCell id="3DmnVJYchchd9WxNzLBE-254" value="Edit aloldal elérése (Profile page)" style="shape=partialRectangle;html=1;whiteSpace=wrap;connectable=0;strokeColor=inherit;overflow=hidden;fillColor=none;top=0;left=0;bottom=0;right=0;pointerEvents=1;align=left;" vertex="1" parent="3DmnVJYchchd9WxNzLBE-253">
          <mxGeometry width="320" height="33" as="geometry">
            <mxRectangle width="320" height="33" as="alternateBounds" />
          </mxGeometry>
        </mxCell>
        <mxCell id="3DmnVJYchchd9WxNzLBE-255" value="✖" style="shape=partialRectangle;html=1;whiteSpace=wrap;connectable=0;strokeColor=inherit;overflow=hidden;fillColor=none;top=0;left=0;bottom=0;right=0;pointerEvents=1;" vertex="1" parent="3DmnVJYchchd9WxNzLBE-253">
          <mxGeometry x="320" width="80" height="33" as="geometry">
            <mxRectangle width="80" height="33" as="alternateBounds" />
          </mxGeometry>
        </mxCell>
        <mxCell id="3DmnVJYchchd9WxNzLBE-256" value="✖" style="shape=partialRectangle;html=1;whiteSpace=wrap;connectable=0;strokeColor=inherit;overflow=hidden;fillColor=none;top=0;left=0;bottom=0;right=0;pointerEvents=1;" vertex="1" parent="3DmnVJYchchd9WxNzLBE-253">
          <mxGeometry x="400" width="80" height="33" as="geometry">
            <mxRectangle width="80" height="33" as="alternateBounds" />
          </mxGeometry>
        </mxCell>
        <mxCell id="3DmnVJYchchd9WxNzLBE-257" value="✔" style="shape=partialRectangle;html=1;whiteSpace=wrap;connectable=0;strokeColor=inherit;overflow=hidden;fillColor=none;top=0;left=0;bottom=0;right=0;pointerEvents=1;" vertex="1" parent="3DmnVJYchchd9WxNzLBE-253">
          <mxGeometry x="480" width="80" height="33" as="geometry">
            <mxRectangle width="80" height="33" as="alternateBounds" />
          </mxGeometry>
        </mxCell>
        <mxCell id="3DmnVJYchchd9WxNzLBE-258" value="" style="shape=tableRow;horizontal=0;startSize=0;swimlaneHead=0;swimlaneBody=0;strokeColor=inherit;top=0;left=0;bottom=0;right=0;collapsible=0;dropTarget=0;fillColor=none;points=[[0,0.5],[1,0.5]];portConstraint=eastwest;" vertex="1" parent="3DmnVJYchchd9WxNzLBE-14">
          <mxGeometry y="759" width="560" height="33" as="geometry" />
        </mxCell>
        <mxCell id="3DmnVJYchchd9WxNzLBE-259" value="Scoring oldal elérése" style="shape=partialRectangle;html=1;whiteSpace=wrap;connectable=0;strokeColor=inherit;overflow=hidden;fillColor=none;top=0;left=0;bottom=0;right=0;pointerEvents=1;align=left;" vertex="1" parent="3DmnVJYchchd9WxNzLBE-258">
          <mxGeometry width="320" height="33" as="geometry">
            <mxRectangle width="320" height="33" as="alternateBounds" />
          </mxGeometry>
        </mxCell>
        <mxCell id="3DmnVJYchchd9WxNzLBE-260" value="✖" style="shape=partialRectangle;html=1;whiteSpace=wrap;connectable=0;strokeColor=inherit;overflow=hidden;fillColor=none;top=0;left=0;bottom=0;right=0;pointerEvents=1;" vertex="1" parent="3DmnVJYchchd9WxNzLBE-258">
          <mxGeometry x="320" width="80" height="33" as="geometry">
            <mxRectangle width="80" height="33" as="alternateBounds" />
          </mxGeometry>
        </mxCell>
        <mxCell id="3DmnVJYchchd9WxNzLBE-261" value="✔" style="shape=partialRectangle;html=1;whiteSpace=wrap;connectable=0;strokeColor=inherit;overflow=hidden;fillColor=none;top=0;left=0;bottom=0;right=0;pointerEvents=1;" vertex="1" parent="3DmnVJYchchd9WxNzLBE-258">
          <mxGeometry x="400" width="80" height="33" as="geometry">
            <mxRectangle width="80" height="33" as="alternateBounds" />
          </mxGeometry>
        </mxCell>
        <mxCell id="3DmnVJYchchd9WxNzLBE-262" value="✔" style="shape=partialRectangle;html=1;whiteSpace=wrap;connectable=0;strokeColor=inherit;overflow=hidden;fillColor=none;top=0;left=0;bottom=0;right=0;pointerEvents=1;" vertex="1" parent="3DmnVJYchchd9WxNzLBE-258">
          <mxGeometry x="480" width="80" height="33" as="geometry">
            <mxRectangle width="80" height="33" as="alternateBounds" />
          </mxGeometry>
        </mxCell>
        <mxCell id="3DmnVJYchchd9WxNzLBE-65" value="" style="shape=tableRow;horizontal=0;startSize=0;swimlaneHead=0;swimlaneBody=0;strokeColor=inherit;top=0;left=0;bottom=0;right=0;collapsible=0;dropTarget=0;fillColor=none;points=[[0,0.5],[1,0.5]];portConstraint=eastwest;" vertex="1" parent="3DmnVJYchchd9WxNzLBE-14">
          <mxGeometry y="792" width="560" height="33" as="geometry" />
        </mxCell>
        <mxCell id="3DmnVJYchchd9WxNzLBE-66" value="Ötletdoboz pontozási lap létrehozás" style="shape=partialRectangle;html=1;whiteSpace=wrap;connectable=0;strokeColor=inherit;overflow=hidden;fillColor=none;top=0;left=0;bottom=0;right=0;pointerEvents=1;align=left;" vertex="1" parent="3DmnVJYchchd9WxNzLBE-65">
          <mxGeometry width="320" height="33" as="geometry">
            <mxRectangle width="320" height="33" as="alternateBounds" />
          </mxGeometry>
        </mxCell>
        <mxCell id="3DmnVJYchchd9WxNzLBE-67" value="✖" style="shape=partialRectangle;html=1;whiteSpace=wrap;connectable=0;strokeColor=inherit;overflow=hidden;fillColor=none;top=0;left=0;bottom=0;right=0;pointerEvents=1;" vertex="1" parent="3DmnVJYchchd9WxNzLBE-65">
          <mxGeometry x="320" width="80" height="33" as="geometry">
            <mxRectangle width="80" height="33" as="alternateBounds" />
          </mxGeometry>
        </mxCell>
        <mxCell id="3DmnVJYchchd9WxNzLBE-68" value="✖" style="shape=partialRectangle;html=1;whiteSpace=wrap;connectable=0;strokeColor=inherit;overflow=hidden;fillColor=none;top=0;left=0;bottom=0;right=0;pointerEvents=1;" vertex="1" parent="3DmnVJYchchd9WxNzLBE-65">
          <mxGeometry x="400" width="80" height="33" as="geometry">
            <mxRectangle width="80" height="33" as="alternateBounds" />
          </mxGeometry>
        </mxCell>
        <mxCell id="3DmnVJYchchd9WxNzLBE-69" value="✔" style="shape=partialRectangle;html=1;whiteSpace=wrap;connectable=0;strokeColor=inherit;overflow=hidden;fillColor=none;top=0;left=0;bottom=0;right=0;pointerEvents=1;" vertex="1" parent="3DmnVJYchchd9WxNzLBE-65">
          <mxGeometry x="480" width="80" height="33" as="geometry">
            <mxRectangle width="80" height="33" as="alternateBounds" />
          </mxGeometry>
        </mxCell>
        <mxCell id="3DmnVJYchchd9WxNzLBE-70" value="" style="shape=tableRow;horizontal=0;startSize=0;swimlaneHead=0;swimlaneBody=0;strokeColor=inherit;top=0;left=0;bottom=0;right=0;collapsible=0;dropTarget=0;fillColor=none;points=[[0,0.5],[1,0.5]];portConstraint=eastwest;" vertex="1" parent="3DmnVJYchchd9WxNzLBE-14">
          <mxGeometry y="825" width="560" height="33" as="geometry" />
        </mxCell>
        <mxCell id="3DmnVJYchchd9WxNzLBE-71" value="Ötletdoboz pontozási lap szerkesztés" style="shape=partialRectangle;html=1;whiteSpace=wrap;connectable=0;strokeColor=inherit;overflow=hidden;fillColor=none;top=0;left=0;bottom=0;right=0;pointerEvents=1;align=left;" vertex="1" parent="3DmnVJYchchd9WxNzLBE-70">
          <mxGeometry width="320" height="33" as="geometry">
            <mxRectangle width="320" height="33" as="alternateBounds" />
          </mxGeometry>
        </mxCell>
        <mxCell id="3DmnVJYchchd9WxNzLBE-72" value="✖" style="shape=partialRectangle;html=1;whiteSpace=wrap;connectable=0;strokeColor=inherit;overflow=hidden;fillColor=none;top=0;left=0;bottom=0;right=0;pointerEvents=1;" vertex="1" parent="3DmnVJYchchd9WxNzLBE-70">
          <mxGeometry x="320" width="80" height="33" as="geometry">
            <mxRectangle width="80" height="33" as="alternateBounds" />
          </mxGeometry>
        </mxCell>
        <mxCell id="3DmnVJYchchd9WxNzLBE-73" value="✖" style="shape=partialRectangle;html=1;whiteSpace=wrap;connectable=0;strokeColor=inherit;overflow=hidden;fillColor=none;top=0;left=0;bottom=0;right=0;pointerEvents=1;" vertex="1" parent="3DmnVJYchchd9WxNzLBE-70">
          <mxGeometry x="400" width="80" height="33" as="geometry">
            <mxRectangle width="80" height="33" as="alternateBounds" />
          </mxGeometry>
        </mxCell>
        <mxCell id="3DmnVJYchchd9WxNzLBE-74" value="✔" style="shape=partialRectangle;html=1;whiteSpace=wrap;connectable=0;strokeColor=inherit;overflow=hidden;fillColor=none;top=0;left=0;bottom=0;right=0;pointerEvents=1;" vertex="1" parent="3DmnVJYchchd9WxNzLBE-70">
          <mxGeometry x="480" width="80" height="33" as="geometry">
            <mxRectangle width="80" height="33" as="alternateBounds" />
          </mxGeometry>
        </mxCell>
        <mxCell id="3DmnVJYchchd9WxNzLBE-263" value="" style="shape=tableRow;horizontal=0;startSize=0;swimlaneHead=0;swimlaneBody=0;strokeColor=inherit;top=0;left=0;bottom=0;right=0;collapsible=0;dropTarget=0;fillColor=none;points=[[0,0.5],[1,0.5]];portConstraint=eastwest;" vertex="1" parent="3DmnVJYchchd9WxNzLBE-14">
          <mxGeometry y="858" width="560" height="33" as="geometry" />
        </mxCell>
        <mxCell id="3DmnVJYchchd9WxNzLBE-264" value="Ötlet pontozása" style="shape=partialRectangle;html=1;whiteSpace=wrap;connectable=0;strokeColor=inherit;overflow=hidden;fillColor=none;top=0;left=0;bottom=0;right=0;pointerEvents=1;align=left;" vertex="1" parent="3DmnVJYchchd9WxNzLBE-263">
          <mxGeometry width="320" height="33" as="geometry">
            <mxRectangle width="320" height="33" as="alternateBounds" />
          </mxGeometry>
        </mxCell>
        <mxCell id="3DmnVJYchchd9WxNzLBE-265" value="✖" style="shape=partialRectangle;html=1;whiteSpace=wrap;connectable=0;strokeColor=inherit;overflow=hidden;fillColor=none;top=0;left=0;bottom=0;right=0;pointerEvents=1;" vertex="1" parent="3DmnVJYchchd9WxNzLBE-263">
          <mxGeometry x="320" width="80" height="33" as="geometry">
            <mxRectangle width="80" height="33" as="alternateBounds" />
          </mxGeometry>
        </mxCell>
        <mxCell id="3DmnVJYchchd9WxNzLBE-266" value="✔" style="shape=partialRectangle;html=1;whiteSpace=wrap;connectable=0;strokeColor=inherit;overflow=hidden;fillColor=none;top=0;left=0;bottom=0;right=0;pointerEvents=1;" vertex="1" parent="3DmnVJYchchd9WxNzLBE-263">
          <mxGeometry x="400" width="80" height="33" as="geometry">
            <mxRectangle width="80" height="33" as="alternateBounds" />
          </mxGeometry>
        </mxCell>
        <mxCell id="3DmnVJYchchd9WxNzLBE-267" value="✔" style="shape=partialRectangle;html=1;whiteSpace=wrap;connectable=0;strokeColor=inherit;overflow=hidden;fillColor=none;top=0;left=0;bottom=0;right=0;pointerEvents=1;" vertex="1" parent="3DmnVJYchchd9WxNzLBE-263">
          <mxGeometry x="480" width="80" height="33" as="geometry">
            <mxRectangle width="80" height="33" as="alternateBounds" />
          </mxGeometry>
        </mxCell>
        <mxCell id="3DmnVJYchchd9WxNzLBE-268" value="" style="shape=tableRow;horizontal=0;startSize=0;swimlaneHead=0;swimlaneBody=0;strokeColor=inherit;top=0;left=0;bottom=0;right=0;collapsible=0;dropTarget=0;fillColor=none;points=[[0,0.5],[1,0.5]];portConstraint=eastwest;" vertex="1" parent="3DmnVJYchchd9WxNzLBE-14">
          <mxGeometry y="891" width="560" height="33" as="geometry" />
        </mxCell>
        <mxCell id="3DmnVJYchchd9WxNzLBE-269" value="Pontozott ötletdobozok megtekintése" style="shape=partialRectangle;html=1;whiteSpace=wrap;connectable=0;strokeColor=inherit;overflow=hidden;fillColor=none;top=0;left=0;bottom=0;right=0;pointerEvents=1;align=left;" vertex="1" parent="3DmnVJYchchd9WxNzLBE-268">
          <mxGeometry width="320" height="33" as="geometry">
            <mxRectangle width="320" height="33" as="alternateBounds" />
          </mxGeometry>
        </mxCell>
        <mxCell id="3DmnVJYchchd9WxNzLBE-270" value="✖" style="shape=partialRectangle;html=1;whiteSpace=wrap;connectable=0;strokeColor=inherit;overflow=hidden;fillColor=none;top=0;left=0;bottom=0;right=0;pointerEvents=1;" vertex="1" parent="3DmnVJYchchd9WxNzLBE-268">
          <mxGeometry x="320" width="80" height="33" as="geometry">
            <mxRectangle width="80" height="33" as="alternateBounds" />
          </mxGeometry>
        </mxCell>
        <mxCell id="3DmnVJYchchd9WxNzLBE-271" value="✖" style="shape=partialRectangle;html=1;whiteSpace=wrap;connectable=0;strokeColor=inherit;overflow=hidden;fillColor=none;top=0;left=0;bottom=0;right=0;pointerEvents=1;" vertex="1" parent="3DmnVJYchchd9WxNzLBE-268">
          <mxGeometry x="400" width="80" height="33" as="geometry">
            <mxRectangle width="80" height="33" as="alternateBounds" />
          </mxGeometry>
        </mxCell>
        <mxCell id="3DmnVJYchchd9WxNzLBE-272" value="✔" style="shape=partialRectangle;html=1;whiteSpace=wrap;connectable=0;strokeColor=inherit;overflow=hidden;fillColor=none;top=0;left=0;bottom=0;right=0;pointerEvents=1;" vertex="1" parent="3DmnVJYchchd9WxNzLBE-268">
          <mxGeometry x="480" width="80" height="33" as="geometry">
            <mxRectangle width="80" height="33" as="alternateBounds" />
          </mxGeometry>
        </mxCell>
        <mxCell id="3DmnVJYchchd9WxNzLBE-273" value="" style="shape=tableRow;horizontal=0;startSize=0;swimlaneHead=0;swimlaneBody=0;strokeColor=inherit;top=0;left=0;bottom=0;right=0;collapsible=0;dropTarget=0;fillColor=none;points=[[0,0.5],[1,0.5]];portConstraint=eastwest;" vertex="1" parent="3DmnVJYchchd9WxNzLBE-14">
          <mxGeometry y="924" width="560" height="33" as="geometry" />
        </mxCell>
        <mxCell id="3DmnVJYchchd9WxNzLBE-274" value="Ötletek elfogadása/elutasítása egy ötletdobozban" style="shape=partialRectangle;html=1;whiteSpace=wrap;connectable=0;strokeColor=inherit;overflow=hidden;fillColor=none;top=0;left=0;bottom=0;right=0;pointerEvents=1;align=left;" vertex="1" parent="3DmnVJYchchd9WxNzLBE-273">
          <mxGeometry width="320" height="33" as="geometry">
            <mxRectangle width="320" height="33" as="alternateBounds" />
          </mxGeometry>
        </mxCell>
        <mxCell id="3DmnVJYchchd9WxNzLBE-275" value="✖" style="shape=partialRectangle;html=1;whiteSpace=wrap;connectable=0;strokeColor=inherit;overflow=hidden;fillColor=none;top=0;left=0;bottom=0;right=0;pointerEvents=1;" vertex="1" parent="3DmnVJYchchd9WxNzLBE-273">
          <mxGeometry x="320" width="80" height="33" as="geometry">
            <mxRectangle width="80" height="33" as="alternateBounds" />
          </mxGeometry>
        </mxCell>
        <mxCell id="3DmnVJYchchd9WxNzLBE-276" value="✖" style="shape=partialRectangle;html=1;whiteSpace=wrap;connectable=0;strokeColor=inherit;overflow=hidden;fillColor=none;top=0;left=0;bottom=0;right=0;pointerEvents=1;" vertex="1" parent="3DmnVJYchchd9WxNzLBE-273">
          <mxGeometry x="400" width="80" height="33" as="geometry">
            <mxRectangle width="80" height="33" as="alternateBounds" />
          </mxGeometry>
        </mxCell>
        <mxCell id="3DmnVJYchchd9WxNzLBE-277" value="✔" style="shape=partialRectangle;html=1;whiteSpace=wrap;connectable=0;strokeColor=inherit;overflow=hidden;fillColor=none;top=0;left=0;bottom=0;right=0;pointerEvents=1;" vertex="1" parent="3DmnVJYchchd9WxNzLBE-273">
          <mxGeometry x="480" width="80" height="33" as="geometry">
            <mxRectangle width="80" height="33" as="alternateBounds" />
          </mxGeometry>
        </mxCell>
        <mxCell id="3DmnVJYchchd9WxNzLBE-286" value="" style="shape=tableRow;horizontal=0;startSize=0;swimlaneHead=0;swimlaneBody=0;strokeColor=inherit;top=0;left=0;bottom=0;right=0;collapsible=0;dropTarget=0;fillColor=none;points=[[0,0.5],[1,0.5]];portConstraint=eastwest;" vertex="1" parent="3DmnVJYchchd9WxNzLBE-14">
          <mxGeometry y="957" width="560" height="33" as="geometry" />
        </mxCell>
        <mxCell id="3DmnVJYchchd9WxNzLBE-287" value="Ötletdoboz lezárása" style="shape=partialRectangle;html=1;whiteSpace=wrap;connectable=0;strokeColor=inherit;overflow=hidden;fillColor=none;top=0;left=0;bottom=0;right=0;pointerEvents=1;align=left;" vertex="1" parent="3DmnVJYchchd9WxNzLBE-286">
          <mxGeometry width="320" height="33" as="geometry">
            <mxRectangle width="320" height="33" as="alternateBounds" />
          </mxGeometry>
        </mxCell>
        <mxCell id="3DmnVJYchchd9WxNzLBE-288" value="✖" style="shape=partialRectangle;html=1;whiteSpace=wrap;connectable=0;strokeColor=inherit;overflow=hidden;fillColor=none;top=0;left=0;bottom=0;right=0;pointerEvents=1;" vertex="1" parent="3DmnVJYchchd9WxNzLBE-286">
          <mxGeometry x="320" width="80" height="33" as="geometry">
            <mxRectangle width="80" height="33" as="alternateBounds" />
          </mxGeometry>
        </mxCell>
        <mxCell id="3DmnVJYchchd9WxNzLBE-289" value="✖" style="shape=partialRectangle;html=1;whiteSpace=wrap;connectable=0;strokeColor=inherit;overflow=hidden;fillColor=none;top=0;left=0;bottom=0;right=0;pointerEvents=1;" vertex="1" parent="3DmnVJYchchd9WxNzLBE-286">
          <mxGeometry x="400" width="80" height="33" as="geometry">
            <mxRectangle width="80" height="33" as="alternateBounds" />
          </mxGeometry>
        </mxCell>
        <mxCell id="3DmnVJYchchd9WxNzLBE-290" value="✔" style="shape=partialRectangle;html=1;whiteSpace=wrap;connectable=0;strokeColor=inherit;overflow=hidden;fillColor=none;top=0;left=0;bottom=0;right=0;pointerEvents=1;" vertex="1" parent="3DmnVJYchchd9WxNzLBE-286">
          <mxGeometry x="480" width="80" height="33" as="geometry">
            <mxRectangle width="80" height="33" as="alternateBounds" />
          </mxGeometry>
        </mxCell>
        <mxCell id="3DmnVJYchchd9WxNzLBE-233" value="" style="shape=tableRow;horizontal=0;startSize=0;swimlaneHead=0;swimlaneBody=0;strokeColor=inherit;top=0;left=0;bottom=0;right=0;collapsible=0;dropTarget=0;fillColor=none;points=[[0,0.5],[1,0.5]];portConstraint=eastwest;" vertex="1" parent="3DmnVJYchchd9WxNzLBE-14">
          <mxGeometry y="990" width="560" height="33" as="geometry" />
        </mxCell>
        <mxCell id="3DmnVJYchchd9WxNzLBE-234" value="Lezást ötletdobozok megtekintése" style="shape=partialRectangle;html=1;whiteSpace=wrap;connectable=0;strokeColor=inherit;overflow=hidden;fillColor=none;top=0;left=0;bottom=0;right=0;pointerEvents=1;align=left;" vertex="1" parent="3DmnVJYchchd9WxNzLBE-233">
          <mxGeometry width="320" height="33" as="geometry">
            <mxRectangle width="320" height="33" as="alternateBounds" />
          </mxGeometry>
        </mxCell>
        <mxCell id="3DmnVJYchchd9WxNzLBE-235" value="✖" style="shape=partialRectangle;html=1;whiteSpace=wrap;connectable=0;strokeColor=inherit;overflow=hidden;fillColor=none;top=0;left=0;bottom=0;right=0;pointerEvents=1;" vertex="1" parent="3DmnVJYchchd9WxNzLBE-233">
          <mxGeometry x="320" width="80" height="33" as="geometry">
            <mxRectangle width="80" height="33" as="alternateBounds" />
          </mxGeometry>
        </mxCell>
        <mxCell id="3DmnVJYchchd9WxNzLBE-236" value="✔" style="shape=partialRectangle;html=1;whiteSpace=wrap;connectable=0;strokeColor=inherit;overflow=hidden;fillColor=none;top=0;left=0;bottom=0;right=0;pointerEvents=1;" vertex="1" parent="3DmnVJYchchd9WxNzLBE-233">
          <mxGeometry x="400" width="80" height="33" as="geometry">
            <mxRectangle width="80" height="33" as="alternateBounds" />
          </mxGeometry>
        </mxCell>
        <mxCell id="3DmnVJYchchd9WxNzLBE-237" value="✔" style="shape=partialRectangle;html=1;whiteSpace=wrap;connectable=0;strokeColor=inherit;overflow=hidden;fillColor=none;top=0;left=0;bottom=0;right=0;pointerEvents=1;" vertex="1" parent="3DmnVJYchchd9WxNzLBE-233">
          <mxGeometry x="480" width="80" height="33" as="geometry">
            <mxRectangle width="80" height="33" as="alternateBounds" />
          </mxGeometry>
        </mxCell>
      </root>
    </mxGraphModel>
  </diagram>
</mxfile>
